<svg width="3240" height="3730" viewBox="0 0 3240 3730" fill="none" xmlns="http://www.w3.org/2000/svg">
<path d="M1619.98 1618.03V3602.42L2843.07 3419.56V1435.18L1619.98 1618.03Z" fill="url(#paint0_linear_1833_21921)"/>
<path d="M396.928 1435.18V3419.56L1619.98 3602.42V1618.03L396.928 1435.18Z" fill="url(#paint1_linear_1833_21921)"/>
<path d="M1619.98 1252.35L396.928 1435.18L1619.98 1618.03L2843.07 1435.18L1619.98 1252.35Z" fill="#FAFAFA"/>
<g opacity="0.63">
<path opacity="0.01" d="M1619.98 1330.67L505.549 1437.69L1619.98 1619.62L2734.45 1437.69L1619.98 1330.67Z" fill="#FEFEFE"/>
<path opacity="0.012" d="M1619.98 1330.92L506.513 1437.7L1619.98 1619.37L2733.49 1437.7L1619.98 1330.92Z" fill="#FCFCFC"/>
<path opacity="0.0181" d="M1619.98 1331.18L507.477 1437.7L1619.98 1619.11L2732.52 1437.7L1619.98 1331.18Z" fill="#FBFBFB"/>
<path opacity="0.0241" d="M1619.98 1331.44L508.441 1437.71L1619.98 1618.85L2731.56 1437.71L1619.98 1331.44Z" fill="#FAFAFA"/>
<path opacity="0.0301" d="M1619.98 1331.69L509.405 1437.71L1619.98 1618.6L2730.59 1437.71L1619.98 1331.69Z" fill="#F8F8F8"/>
<path opacity="0.0361" d="M1619.98 1331.95L510.369 1437.72L1619.98 1618.34L2729.63 1437.72L1619.98 1331.95Z" fill="#F7F7F7"/>
<path opacity="0.0422" d="M1619.98 1332.21L511.333 1437.72L1619.98 1618.08L2728.67 1437.72L1619.98 1332.21Z" fill="#F6F6F6"/>
<path opacity="0.0482" d="M1619.98 1332.46L512.298 1437.73L1619.98 1617.83L2727.7 1437.73L1619.98 1332.46Z" fill="#F4F4F4"/>
<path opacity="0.0542" d="M1619.98 1332.72L513.262 1437.73L1619.98 1617.57L2726.74 1437.73L1619.98 1332.72Z" fill="#F3F3F3"/>
<path opacity="0.0602" d="M1619.98 1332.98L514.226 1437.74L1619.98 1617.31L2725.77 1437.74L1619.98 1332.98Z" fill="#F2F2F2"/>
<path opacity="0.0663" d="M1619.98 1333.24L515.19 1437.74L1619.98 1617.06L2724.81 1437.74L1619.98 1333.24Z" fill="#F0F0F0"/>
<path opacity="0.0723" d="M1619.98 1333.49L516.154 1437.75L1619.98 1616.8L2723.85 1437.75L1619.98 1333.49Z" fill="#EFEFEF"/>
<path opacity="0.0783" d="M1619.98 1333.75L517.118 1437.75L1619.98 1616.54L2722.88 1437.75L1619.98 1333.75Z" fill="#EEEDEE"/>
<path opacity="0.0843" d="M1619.98 1334.01L518.082 1437.76L1619.98 1616.28L2721.92 1437.76L1619.98 1334.01Z" fill="#ECECEC"/>
<path opacity="0.0904" d="M1619.98 1334.26L519.046 1437.76L1619.98 1616.03L2720.95 1437.76L1619.98 1334.26Z" fill="#EBEBEB"/>
<path opacity="0.0964" d="M1619.98 1334.52L520.01 1437.77L1619.98 1615.77L2719.99 1437.77L1619.98 1334.52Z" fill="#EAE9EA"/>
<path opacity="0.1024" d="M1619.98 1334.78L520.974 1437.77L1619.98 1615.52L2719.03 1437.77L1619.98 1334.78Z" fill="#E8E8E8"/>
<path opacity="0.1084" d="M1619.98 1335.03L521.938 1437.78L1619.98 1615.26L2718.06 1437.78L1619.98 1335.03Z" fill="#E7E7E7"/>
<path opacity="0.1145" d="M1619.98 1335.29L522.902 1437.78L1619.98 1615L2717.1 1437.78L1619.98 1335.29Z" fill="#E6E5E5"/>
<path opacity="0.1205" d="M1619.98 1335.55L523.866 1437.79L1619.98 1614.74L2716.13 1437.79L1619.98 1335.55Z" fill="#E4E4E4"/>
<path opacity="0.1265" d="M1619.98 1335.8L524.831 1437.79L1619.98 1614.49L2715.17 1437.79L1619.98 1335.8Z" fill="#E3E3E3"/>
<path opacity="0.1325" d="M1619.98 1336.06L525.794 1437.8L1619.98 1614.23L2714.21 1437.8L1619.98 1336.06Z" fill="#E2E1E1"/>
<path opacity="0.1386" d="M1619.98 1336.32L526.759 1437.8L1619.98 1613.97L2713.24 1437.8L1619.98 1336.32Z" fill="#E1E0E0"/>
<path opacity="0.1446" d="M1619.98 1336.58L527.723 1437.81L1619.98 1613.72L2712.28 1437.81L1619.98 1336.58Z" fill="#DFDFDF"/>
<path opacity="0.1506" d="M1619.98 1336.83L528.687 1437.81L1619.98 1613.46L2711.31 1437.81L1619.98 1336.83Z" fill="#DEDDDD"/>
<path opacity="0.1566" d="M1619.98 1337.09L529.651 1437.82L1619.98 1613.2L2710.35 1437.82L1619.98 1337.09Z" fill="#DDDCDC"/>
<path opacity="0.1627" d="M1619.98 1337.35L530.615 1437.82L1619.98 1612.95L2709.39 1437.82L1619.98 1337.35Z" fill="#DBDBDB"/>
<path opacity="0.1687" d="M1619.98 1337.6L531.579 1437.83L1619.98 1612.69L2708.42 1437.83L1619.98 1337.6Z" fill="#DAD9D9"/>
<path opacity="0.1747" d="M1619.98 1337.86L532.543 1437.83L1619.98 1612.43L2707.46 1437.83L1619.98 1337.86Z" fill="#D9D8D8"/>
<path opacity="0.1807" d="M1619.98 1338.12L533.507 1437.84L1619.98 1612.18L2706.49 1437.84L1619.98 1338.12Z" fill="#D7D7D7"/>
<path opacity="0.1867" d="M1619.98 1338.37L534.471 1437.84L1619.98 1611.92L2705.53 1437.84L1619.98 1338.37Z" fill="#D6D5D5"/>
<path opacity="0.1928" d="M1619.98 1338.63L535.435 1437.85L1619.98 1611.66L2704.56 1437.85L1619.98 1338.63Z" fill="#D5D4D4"/>
<path opacity="0.1988" d="M1619.98 1338.89L536.399 1437.85L1619.98 1611.4L2703.6 1437.85L1619.98 1338.89Z" fill="#D3D2D3"/>
<path opacity="0.2048" d="M1619.98 1339.14L537.363 1437.86L1619.98 1611.15L2702.64 1437.86L1619.98 1339.14Z" fill="#D2D1D1"/>
<path opacity="0.2108" d="M1619.98 1339.4L538.327 1437.87L1619.98 1610.89L2701.67 1437.87L1619.98 1339.4Z" fill="#D1D0D0"/>
<path opacity="0.2169" d="M1619.98 1339.66L539.291 1437.87L1619.98 1610.63L2700.71 1437.87L1619.98 1339.66Z" fill="#CFCECF"/>
<path opacity="0.2229" d="M1619.98 1339.92L540.255 1437.88L1619.98 1610.38L2699.74 1437.88L1619.98 1339.92Z" fill="#CECDCD"/>
<path opacity="0.2289" d="M1619.98 1340.17L541.22 1437.88L1619.98 1610.12L2698.78 1437.88L1619.98 1340.17Z" fill="#CDCCCC"/>
<path opacity="0.2349" d="M1619.98 1340.43L542.184 1437.88L1619.98 1609.86L2697.82 1437.88L1619.98 1340.43Z" fill="#CBCACB"/>
<path opacity="0.241" d="M1619.98 1340.69L543.148 1437.89L1619.98 1609.61L2696.85 1437.89L1619.98 1340.69Z" fill="#CAC9C9"/>
<path opacity="0.247" d="M1619.98 1340.94L544.112 1437.9L1619.98 1609.35L2695.89 1437.9L1619.98 1340.94Z" fill="#C9C8C8"/>
<path opacity="0.253" d="M1619.98 1341.2L545.076 1437.9L1619.98 1609.09L2694.92 1437.9L1619.98 1341.2Z" fill="#C7C6C7"/>
<path opacity="0.259" d="M1619.98 1341.46L546.04 1437.91L1619.98 1608.83L2693.96 1437.91L1619.98 1341.46Z" fill="#C6C5C5"/>
<path opacity="0.2651" d="M1619.98 1341.71L547.004 1437.91L1619.98 1608.58L2693 1437.91L1619.98 1341.71Z" fill="#C5C4C4"/>
<path opacity="0.2711" d="M1619.98 1341.97L547.968 1437.92L1619.98 1608.32L2692.03 1437.92L1619.98 1341.97Z" fill="#C3C2C3"/>
<path opacity="0.2771" d="M1619.98 1342.23L548.932 1437.92L1619.98 1608.07L2691.07 1437.92L1619.98 1342.23Z" fill="#C2C1C1"/>
<path opacity="0.2831" d="M1619.98 1342.48L549.896 1437.93L1619.98 1607.81L2690.1 1437.93L1619.98 1342.48Z" fill="#C1C0C0"/>
<path opacity="0.2892" d="M1619.98 1342.74L550.86 1437.93L1619.98 1607.55L2689.14 1437.93L1619.98 1342.74Z" fill="#BFBEBF"/>
<path opacity="0.2952" d="M1619.98 1343L551.824 1437.94L1619.98 1607.29L2688.18 1437.94L1619.98 1343Z" fill="#BEBDBD"/>
<path opacity="0.3012" d="M1619.98 1343.25L552.788 1437.94L1619.98 1607.04L2687.21 1437.94L1619.98 1343.25Z" fill="#BDBCBC"/>
<path opacity="0.3072" d="M1619.98 1343.51L553.752 1437.95L1619.98 1606.78L2686.25 1437.95L1619.98 1343.51Z" fill="#BBBABA"/>
<path opacity="0.3133" d="M1619.98 1343.77L554.716 1437.95L1619.98 1606.52L2685.28 1437.95L1619.98 1343.77Z" fill="#BAB9B9"/>
<path opacity="0.3193" d="M1619.98 1344.03L555.68 1437.96L1619.98 1606.27L2684.32 1437.96L1619.98 1344.03Z" fill="#B9B7B8"/>
<path opacity="0.3253" d="M1619.98 1344.28L556.645 1437.96L1619.98 1606.01L2683.35 1437.96L1619.98 1344.28Z" fill="#B7B6B6"/>
<path opacity="0.3313" d="M1619.98 1344.54L557.609 1437.97L1619.98 1605.75L2682.39 1437.97L1619.98 1344.54Z" fill="#B6B5B5"/>
<path opacity="0.3373" d="M1619.98 1344.8L558.573 1437.97L1619.98 1605.5L2681.43 1437.97L1619.98 1344.8Z" fill="#B5B3B4"/>
<path opacity="0.3434" d="M1619.98 1345.05L559.537 1437.98L1619.98 1605.24L2680.46 1437.98L1619.98 1345.05Z" fill="#B3B2B2"/>
<path opacity="0.3494" d="M1619.98 1345.31L560.501 1437.98L1619.98 1604.98L2679.5 1437.98L1619.98 1345.31Z" fill="#B2B1B1"/>
<path opacity="0.3554" d="M1619.98 1345.57L561.465 1437.99L1619.98 1604.73L2678.53 1437.99L1619.98 1345.57Z" fill="#B1AFB0"/>
<path opacity="0.3614" d="M1619.98 1345.82L562.429 1437.99L1619.98 1604.47L2677.57 1437.99L1619.98 1345.82Z" fill="#AFAEAE"/>
<path opacity="0.3675" d="M1619.98 1346.08L563.393 1438L1619.98 1604.21L2676.61 1438L1619.98 1346.08Z" fill="#AEADAD"/>
<path opacity="0.3735" d="M1619.98 1346.34L564.357 1438L1619.98 1603.95L2675.64 1438L1619.98 1346.34Z" fill="#ADABAC"/>
<path opacity="0.3795" d="M1619.98 1346.59L565.321 1438.01L1619.98 1603.7L2674.68 1438.01L1619.98 1346.59Z" fill="#ACAAAA"/>
<path opacity="0.3855" d="M1619.98 1346.85L566.285 1438.01L1619.98 1603.44L2673.72 1438.01L1619.98 1346.85Z" fill="#AAA9A9"/>
<path opacity="0.3916" d="M1619.98 1347.11L567.249 1438.02L1619.98 1603.18L2672.75 1438.02L1619.98 1347.11Z" fill="#A9A7A8"/>
<path opacity="0.3976" d="M1619.98 1347.37L568.213 1438.02L1619.98 1602.93L2671.79 1438.02L1619.98 1347.37Z" fill="#A8A6A6"/>
<path opacity="0.4036" d="M1619.98 1347.62L569.177 1438.03L1619.98 1602.67L2670.82 1438.03L1619.98 1347.62Z" fill="#A6A5A5"/>
<path opacity="0.4096" d="M1619.98 1347.88L570.141 1438.03L1619.98 1602.41L2669.86 1438.03L1619.98 1347.88Z" fill="#A5A3A4"/>
<path opacity="0.4157" d="M1619.98 1348.13L571.106 1438.04L1619.98 1602.16L2668.89 1438.04L1619.98 1348.13Z" fill="#A4A2A2"/>
<path opacity="0.4217" d="M1619.98 1348.39L572.07 1438.04L1619.98 1601.9L2667.93 1438.04L1619.98 1348.39Z" fill="#A2A1A1"/>
<path opacity="0.4277" d="M1619.98 1348.65L573.034 1438.05L1619.98 1601.64L2666.97 1438.05L1619.98 1348.65Z" fill="#A19FA0"/>
<path opacity="0.4337" d="M1619.98 1348.91L573.998 1438.05L1619.98 1601.39L2666 1438.05L1619.98 1348.91Z" fill="#A09E9E"/>
<path opacity="0.4398" d="M1619.98 1349.16L574.962 1438.06L1619.98 1601.13L2665.04 1438.06L1619.98 1349.16Z" fill="#9E9C9D"/>
<path opacity="0.4458" d="M1619.98 1349.42L575.926 1438.06L1619.98 1600.87L2664.07 1438.06L1619.98 1349.42Z" fill="#9D9B9C"/>
<path opacity="0.4518" d="M1619.98 1349.68L576.89 1438.07L1619.98 1600.61L2663.11 1438.07L1619.98 1349.68Z" fill="#9C9A9A"/>
<path opacity="0.4578" d="M1619.98 1349.93L577.854 1438.07L1619.98 1600.36L2662.15 1438.07L1619.98 1349.93Z" fill="#9A9899"/>
<path opacity="0.4639" d="M1619.98 1350.19L578.818 1438.08L1619.98 1600.1L2661.18 1438.08L1619.98 1350.19Z" fill="#999798"/>
<path opacity="0.4699" d="M1619.98 1350.45L579.782 1438.08L1619.98 1599.84L2660.22 1438.08L1619.98 1350.45Z" fill="#989696"/>
<path opacity="0.4759" d="M1619.98 1350.7L580.746 1438.09L1619.98 1599.59L2659.25 1438.09L1619.98 1350.7Z" fill="#969495"/>
<path opacity="0.4819" d="M1619.98 1350.96L581.71 1438.09L1619.98 1599.33L2658.29 1438.09L1619.98 1350.96Z" fill="#959394"/>
<path opacity="0.488" d="M1619.98 1351.22L582.674 1438.1L1619.98 1599.07L2657.33 1438.1L1619.98 1351.22Z" fill="#949292"/>
<path opacity="0.494" d="M1619.98 1351.47L583.638 1438.1L1619.98 1598.82L2656.36 1438.1L1619.98 1351.47Z" fill="#929091"/>
<path opacity="0.5" d="M1619.98 1351.73L584.602 1438.11L1619.98 1598.56L2655.4 1438.11L1619.98 1351.73Z" fill="#918F90"/>
<path opacity="0.506" d="M1619.98 1351.99L585.567 1438.12L1619.98 1598.3L2654.43 1438.12L1619.98 1351.99Z" fill="#908E8E"/>
<path opacity="0.512" d="M1619.98 1352.25L586.531 1438.12L1619.98 1598.05L2653.47 1438.12L1619.98 1352.25Z" fill="#8E8C8D"/>
<path opacity="0.5181" d="M1619.98 1352.5L587.495 1438.12L1619.98 1597.79L2652.5 1438.12L1619.98 1352.5Z" fill="#8D8B8B"/>
<path opacity="0.5241" d="M1619.98 1352.76L588.459 1438.13L1619.98 1597.53L2651.54 1438.13L1619.98 1352.76Z" fill="#8C8A8A"/>
<path opacity="0.5301" d="M1619.98 1353.02L589.423 1438.13L1619.98 1597.27L2650.58 1438.13L1619.98 1353.02Z" fill="#8A8889"/>
<path opacity="0.5361" d="M1619.98 1353.27L590.387 1438.14L1619.98 1597.02L2649.61 1438.14L1619.98 1353.27Z" fill="#898787"/>
<path opacity="0.5422" d="M1619.98 1353.53L591.351 1438.15L1619.98 1596.76L2648.65 1438.15L1619.98 1353.53Z" fill="#888686"/>
<path opacity="0.5482" d="M1619.98 1353.79L592.315 1438.15L1619.98 1596.51L2647.69 1438.15L1619.98 1353.79Z" fill="#868485"/>
<path opacity="0.5542" d="M1619.98 1354.04L593.279 1438.16L1619.98 1596.25L2646.72 1438.16L1619.98 1354.04Z" fill="#858383"/>
<path opacity="0.5602" d="M1619.98 1354.3L594.243 1438.16L1619.98 1595.99L2645.76 1438.16L1619.98 1354.3Z" fill="#848282"/>
<path opacity="0.5663" d="M1619.99 1354.56L595.207 1438.17L1619.99 1595.73L2644.79 1438.17L1619.99 1354.56Z" fill="#828081"/>
<path opacity="0.5723" d="M1619.98 1354.81L596.171 1438.17L1619.98 1595.48L2643.83 1438.17L1619.98 1354.81Z" fill="#817F7F"/>
<path opacity="0.5783" d="M1619.98 1355.07L597.135 1438.18L1619.98 1595.22L2642.86 1438.18L1619.98 1355.07Z" fill="#807D7E"/>
<path opacity="0.5843" d="M1619.98 1355.33L598.099 1438.18L1619.98 1594.96L2641.9 1438.18L1619.98 1355.33Z" fill="#7E7C7D"/>
<path opacity="0.5904" d="M1619.98 1355.58L599.062 1438.19L1619.98 1594.71L2640.94 1438.19L1619.98 1355.58Z" fill="#7D7B7B"/>
<path opacity="0.5964" d="M1619.99 1355.84L600.027 1438.19L1619.99 1594.45L2639.97 1438.19L1619.99 1355.84Z" fill="#7C797A"/>
<path opacity="0.6024" d="M1619.99 1356.1L600.992 1438.2L1619.99 1594.19L2639.01 1438.2L1619.99 1356.1Z" fill="#7A7879"/>
<path opacity="0.6084" d="M1619.99 1356.36L601.956 1438.2L1619.99 1593.94L2638.04 1438.2L1619.99 1356.36Z" fill="#797777"/>
<path opacity="0.6145" d="M1619.98 1356.61L602.92 1438.21L1619.98 1593.68L2637.08 1438.21L1619.98 1356.61Z" fill="#787576"/>
<path opacity="0.6205" d="M1619.98 1356.87L603.884 1438.21L1619.98 1593.42L2636.12 1438.21L1619.98 1356.87Z" fill="#767475"/>
<path opacity="0.6265" d="M1619.98 1357.13L604.848 1438.22L1619.98 1593.17L2635.15 1438.22L1619.98 1357.13Z" fill="#757373"/>
<path opacity="0.6325" d="M1619.98 1357.38L605.812 1438.22L1619.98 1592.91L2634.19 1438.22L1619.98 1357.38Z" fill="#747172"/>
<path opacity="0.6386" d="M1619.99 1357.64L606.776 1438.23L1619.99 1592.65L2633.22 1438.23L1619.99 1357.64Z" fill="#737071"/>
<path opacity="0.6446" d="M1619.99 1357.9L607.74 1438.23L1619.99 1592.39L2632.26 1438.23L1619.99 1357.9Z" fill="#716F6F"/>
<path opacity="0.6506" d="M1619.99 1358.15L608.704 1438.24L1619.99 1592.14L2631.3 1438.24L1619.99 1358.15Z" fill="#706D6E"/>
<path opacity="0.6566" d="M1619.98 1358.41L609.668 1438.24L1619.98 1591.88L2630.33 1438.24L1619.98 1358.41Z" fill="#6F6C6D"/>
<path opacity="0.6627" d="M1619.98 1358.67L610.632 1438.25L1619.98 1591.62L2629.37 1438.25L1619.98 1358.67Z" fill="#6D6B6B"/>
<path opacity="0.6687" d="M1619.98 1358.92L611.596 1438.25L1619.98 1591.37L2628.4 1438.25L1619.98 1358.92Z" fill="#6C696A"/>
<path opacity="0.6747" d="M1619.98 1359.18L612.56 1438.26L1619.98 1591.11L2627.44 1438.26L1619.98 1359.18Z" fill="#6B6869"/>
<path opacity="0.6807" d="M1619.99 1359.44L613.524 1438.26L1619.99 1590.85L2626.48 1438.26L1619.99 1359.44Z" fill="#696767"/>
<path opacity="0.6867" d="M1619.99 1359.7L614.488 1438.27L1619.99 1590.6L2625.51 1438.27L1619.99 1359.7Z" fill="#686566"/>
<path opacity="0.6928" d="M1619.99 1359.95L615.453 1438.27L1619.99 1590.34L2624.55 1438.27L1619.99 1359.95Z" fill="#676465"/>
<path opacity="0.6988" d="M1619.98 1360.21L616.417 1438.28L1619.98 1590.08L2623.58 1438.28L1619.98 1360.21Z" fill="#656263"/>
<path opacity="0.7048" d="M1619.98 1360.47L617.381 1438.28L1619.98 1589.82L2622.62 1438.28L1619.98 1360.47Z" fill="#646162"/>
<path opacity="0.7108" d="M1619.98 1360.72L618.345 1438.29L1619.98 1589.57L2621.65 1438.29L1619.98 1360.72Z" fill="#636060"/>
<path opacity="0.7169" d="M1619.98 1360.98L619.309 1438.29L1619.98 1589.31L2620.69 1438.29L1619.98 1360.98Z" fill="#615E5F"/>
<path opacity="0.7229" d="M1619.99 1361.24L620.273 1438.3L1619.99 1589.06L2619.73 1438.3L1619.99 1361.24Z" fill="#605D5E"/>
<path opacity="0.7289" d="M1619.99 1361.49L621.237 1438.3L1619.99 1588.8L2618.76 1438.3L1619.99 1361.49Z" fill="#5F5C5C"/>
<path opacity="0.7349" d="M1619.99 1361.75L622.201 1438.31L1619.99 1588.54L2617.8 1438.31L1619.99 1361.75Z" fill="#5D5A5B"/>
<path opacity="0.741" d="M1619.99 1362.01L623.165 1438.31L1619.99 1588.28L2616.83 1438.31L1619.99 1362.01Z" fill="#5C595A"/>
<path opacity="0.747" d="M1619.98 1362.26L624.129 1438.32L1619.98 1588.03L2615.87 1438.32L1619.98 1362.26Z" fill="#5B5858"/>
<path opacity="0.753" d="M1619.98 1362.52L625.093 1438.32L1619.98 1587.77L2614.91 1438.32L1619.98 1362.52Z" fill="#595657"/>
<path opacity="0.759" d="M1619.98 1362.78L626.057 1438.33L1619.98 1587.51L2613.94 1438.33L1619.98 1362.78Z" fill="#585556"/>
<path opacity="0.7651" d="M1619.98 1363.04L627.021 1438.33L1619.98 1587.26L2612.98 1438.33L1619.98 1363.04Z" fill="#575454"/>
<path opacity="0.7711" d="M1619.99 1363.29L627.985 1438.34L1619.99 1587L2612.02 1438.34L1619.99 1363.29Z" fill="#555253"/>
<path opacity="0.7771" d="M1619.99 1363.55L628.949 1438.34L1619.99 1586.74L2611.05 1438.34L1619.99 1363.55Z" fill="#545152"/>
<path opacity="0.7831" d="M1619.99 1363.81L629.914 1438.35L1619.99 1586.49L2610.09 1438.35L1619.99 1363.81Z" fill="#535050"/>
<path opacity="0.7892" d="M1619.98 1364.06L630.878 1438.35L1619.98 1586.23L2609.12 1438.35L1619.98 1364.06Z" fill="#514E4F"/>
<path opacity="0.7952" d="M1619.98 1364.32L631.842 1438.36L1619.98 1585.97L2608.16 1438.36L1619.98 1364.32Z" fill="#504D4E"/>
<path opacity="0.8012" d="M1619.98 1364.58L632.806 1438.37L1619.98 1585.72L2607.19 1438.37L1619.98 1364.58Z" fill="#4F4C4C"/>
<path opacity="0.8072" d="M1619.98 1364.83L633.77 1438.37L1619.98 1585.46L2606.23 1438.37L1619.98 1364.83Z" fill="#4D4A4B"/>
<path opacity="0.8133" d="M1619.99 1365.09L634.734 1438.37L1619.99 1585.2L2605.27 1438.37L1619.99 1365.09Z" fill="#4C494A"/>
<path opacity="0.8193" d="M1619.99 1365.35L635.698 1438.38L1619.99 1584.95L2604.3 1438.38L1619.99 1365.35Z" fill="#4B4748"/>
<path opacity="0.8253" d="M1619.99 1365.6L636.662 1438.39L1619.99 1584.69L2603.34 1438.39L1619.99 1365.6Z" fill="#494647"/>
<path opacity="0.8313" d="M1619.98 1365.86L637.626 1438.39L1619.98 1584.43L2602.37 1438.39L1619.98 1365.86Z" fill="#484546"/>
<path opacity="0.8373" d="M1619.98 1366.12L638.59 1438.4L1619.98 1584.17L2601.41 1438.4L1619.98 1366.12Z" fill="#474344"/>
<path opacity="0.8434" d="M1619.98 1366.37L639.554 1438.4L1619.98 1583.92L2600.45 1438.4L1619.98 1366.37Z" fill="#454243"/>
<path opacity="0.8494" d="M1619.98 1366.63L640.518 1438.41L1619.98 1583.66L2599.48 1438.41L1619.98 1366.63Z" fill="#444142"/>
<path opacity="0.8554" d="M1619.99 1366.89L641.482 1438.41L1619.99 1583.4L2598.52 1438.41L1619.99 1366.89Z" fill="#433F40"/>
<path opacity="0.8614" d="M1619.99 1367.15L642.446 1438.42L1619.99 1583.15L2597.55 1438.42L1619.99 1367.15Z" fill="#413E3F"/>
<path opacity="0.8675" d="M1619.99 1367.4L643.41 1438.42L1619.99 1582.89L2596.59 1438.42L1619.99 1367.4Z" fill="#403D3E"/>
<path opacity="0.8735" d="M1619.98 1367.66L644.375 1438.43L1619.98 1582.63L2595.62 1438.43L1619.98 1367.66Z" fill="#3F3B3C"/>
<path opacity="0.8795" d="M1619.98 1367.92L645.339 1438.43L1619.98 1582.38L2594.66 1438.43L1619.98 1367.92Z" fill="#3E3A3B"/>
<path opacity="0.8855" d="M1619.98 1368.17L646.303 1438.44L1619.98 1582.12L2593.7 1438.44L1619.98 1368.17Z" fill="#3C393A"/>
<path opacity="0.8916" d="M1619.98 1368.43L647.267 1438.44L1619.98 1581.86L2592.73 1438.44L1619.98 1368.43Z" fill="#3B3738"/>
<path opacity="0.8976" d="M1619.99 1368.69L648.231 1438.45L1619.99 1581.61L2591.77 1438.45L1619.99 1368.69Z" fill="#3A3637"/>
<path opacity="0.9036" d="M1619.99 1368.94L649.195 1438.45L1619.99 1581.35L2590.81 1438.45L1619.99 1368.94Z" fill="#383535"/>
<path opacity="0.9096" d="M1619.99 1369.2L650.159 1438.46L1619.99 1581.09L2589.84 1438.46L1619.99 1369.2Z" fill="#373334"/>
<path opacity="0.9157" d="M1619.99 1369.46L651.123 1438.46L1619.99 1580.83L2588.88 1438.46L1619.99 1369.46Z" fill="#363233"/>
<path opacity="0.9217" d="M1619.98 1369.71L652.087 1438.47L1619.98 1580.58L2587.91 1438.47L1619.98 1369.71Z" fill="#343131"/>
<path opacity="0.9277" d="M1619.98 1369.97L653.051 1438.47L1619.98 1580.32L2586.95 1438.47L1619.98 1369.97Z" fill="#332F30"/>
<path opacity="0.9337" d="M1619.98 1370.23L654.015 1438.48L1619.98 1580.06L2585.98 1438.48L1619.98 1370.23Z" fill="#322E2F"/>
<path opacity="0.9398" d="M1619.98 1370.49L654.979 1438.48L1619.98 1579.81L2585.02 1438.48L1619.98 1370.49Z" fill="#302C2D"/>
<path opacity="0.9458" d="M1619.99 1370.74L655.943 1438.49L1619.99 1579.55L2584.06 1438.49L1619.99 1370.74Z" fill="#2F2B2C"/>
<path opacity="0.9518" d="M1619.99 1371L656.907 1438.49L1619.99 1579.29L2583.09 1438.49L1619.99 1371Z" fill="#2E2A2B"/>
<path opacity="0.9578" d="M1619.99 1371.25L657.871 1438.5L1619.99 1579.04L2582.13 1438.5L1619.99 1371.25Z" fill="#2C2829"/>
<path opacity="0.9639" d="M1619.98 1371.51L658.836 1438.5L1619.98 1578.78L2581.17 1438.5L1619.98 1371.51Z" fill="#2B2728"/>
<path opacity="0.9699" d="M1619.98 1371.77L659.8 1438.51L1619.98 1578.52L2580.2 1438.51L1619.98 1371.77Z" fill="#2A2627"/>
<path opacity="0.9759" d="M1619.98 1372.03L660.764 1438.51L1619.98 1578.27L2579.24 1438.51L1619.98 1372.03Z" fill="#282425"/>
<path opacity="0.9819" d="M1619.99 1372.28L661.728 1438.52L1619.99 1578.01L2578.27 1438.52L1619.99 1372.28Z" fill="#272324"/>
<path opacity="0.988" d="M1619.99 1372.54L662.692 1438.52L1619.99 1577.75L2577.31 1438.52L1619.99 1372.54Z" fill="#262223"/>
<path opacity="0.994" d="M1619.99 1372.8L663.656 1438.53L1619.99 1577.49L2576.34 1438.53L1619.99 1372.8Z" fill="#242021"/>
<path d="M1619.99 1373.05L664.62 1438.53L1619.99 1577.24L2575.38 1438.53L1619.99 1373.05Z" fill="#231F20"/>
</g>
<path d="M1619.98 1529.81V1589.06L2712.96 1425.66V1366.41L1619.98 1529.81Z" fill="#E8E8E8"/>
<path d="M527.041 1366.41V1425.66L1619.98 1589.06V1529.81L527.041 1366.41Z" fill="#EFEFEF"/>
<path d="M1619.98 1203.03L527.041 1366.41L1619.98 1529.81L2712.96 1366.41L1619.98 1203.03Z" fill="#FAFAFA"/>
<defs>
<linearGradient id="paint0_linear_1833_21921" x1="2231.53" y1="1435.18" x2="2464" y2="3432.5" gradientUnits="userSpaceOnUse">
<stop stop-color="#E8E8E8"/>
<stop offset="1" stop-color="#828282" stop-opacity="0"/>
</linearGradient>
<linearGradient id="paint1_linear_1833_21921" x1="1008.45" y1="1435.18" x2="750.5" y2="3521" gradientUnits="userSpaceOnUse">
<stop stop-color="#EFEFEF"/>
<stop offset="1" stop-color="#898989" stop-opacity="0"/>
</linearGradient>
</defs>
</svg>
